<svg width="161" height="169" viewBox="0 0 161 169" fill="none" xmlns="http://www.w3.org/2000/svg">
<path d="M80.822 141.65C50.554 141.65 26.082 116.168 26.082 84.65C26.082 53.1323 50.554 27.65 80.822 27.65C111.09 27.65 135.562 53.1323 135.562 84.65C135.562 116.168 110.768 141.65 80.822 141.65ZM80.822 34.3559C54.096 34.3559 32.522 56.8206 32.522 84.65C32.522 112.479 54.096 134.944 80.822 134.944C107.548 134.944 129.122 112.479 129.122 84.65C129.122 56.8206 107.226 34.3559 80.822 34.3559Z" fill="black"/>
<path d="M49.266 125.891L43.47 123.209C45.08 119.185 50.232 116.838 55.706 114.156C61.18 111.473 67.942 108.456 67.942 104.768V99.7382C66.01 98.0617 62.79 94.3735 62.146 89.0088C60.536 87.3323 57.96 84.3146 57.96 80.2911C57.96 77.9441 58.926 75.9323 59.57 74.5911C58.926 71.9088 58.282 66.8794 58.282 62.8558C58.282 49.7794 66.976 41.0617 80.822 41.0617C84.686 41.0617 89.516 42.0676 92.092 45.0853C98.21 46.4264 103.362 53.8029 103.362 62.8558C103.362 68.5558 102.396 73.2499 101.752 75.597C102.396 76.6029 103.04 78.2794 103.04 80.2911C103.04 84.6499 100.786 87.6676 98.854 89.0088C98.21 94.3735 95.312 97.7264 93.38 99.4029V104.768C93.38 107.785 99.176 110.132 104.328 112.144C110.446 114.491 116.886 117.173 119.14 122.538L113.022 124.885C112.056 122.203 106.904 120.191 102.074 118.515C94.99 115.832 86.94 112.815 86.94 105.103V96.3852L88.55 95.3793C88.55 95.3793 92.414 92.697 92.414 87.3323V84.9852L94.346 83.9794C94.668 83.9794 96.278 82.9735 96.278 80.2911C96.278 79.6205 95.634 78.6147 95.312 78.2794L94.024 76.9382L94.668 75.2617C94.668 75.2617 96.278 69.897 96.278 63.1911C96.278 56.8205 92.736 52.1264 89.838 52.1264H87.906L86.94 50.45C86.94 49.1088 84.686 47.7676 80.822 47.7676C70.84 47.7676 64.722 53.4676 64.722 62.8558C64.722 67.2147 66.332 74.5911 66.332 74.5911L66.654 76.2676L65.366 77.9441C65.044 77.9441 64.4 78.9499 64.4 80.2911C64.4 81.9676 66.332 83.9794 67.298 84.6499L68.586 85.6558V87.3323C68.586 92.3617 72.772 95.0441 72.772 95.3793L74.382 96.3852V105.103C74.382 113.15 66.01 117.173 58.282 120.526C54.74 121.868 49.91 124.215 49.266 125.891Z" fill="black"/>
</svg>
