<svg width="161" height="169" viewBox="0 0 161 169" fill="none" xmlns="http://www.w3.org/2000/svg">
<path d="M80.822 141.874C50.554 141.874 26.082 116.367 26.082 84.8186C26.082 53.2702 50.554 27.7629 80.822 27.7629C111.09 27.7629 135.562 53.2702 135.562 84.8186C135.562 116.367 110.768 141.874 80.822 141.874ZM80.822 34.4754C54.096 34.4754 32.522 56.962 32.522 84.8186C32.522 112.675 54.096 135.162 80.822 135.162C107.548 135.162 129.122 112.675 129.122 84.8186C129.122 56.962 107.226 34.4754 80.822 34.4754Z" fill="black"/>
<path d="M49.266 126.1L43.47 123.415C45.08 119.388 50.232 117.038 55.706 114.353C61.18 111.668 67.942 108.648 67.942 104.956V99.9215C66.01 98.2434 62.79 94.5516 62.146 89.1817C60.536 87.5035 57.96 84.483 57.96 80.4555C57.96 78.1062 58.926 76.0924 59.57 74.7499C58.926 72.065 58.282 67.0306 58.282 63.0032C58.282 49.914 66.976 41.1878 80.822 41.1878C84.686 41.1878 89.516 42.1947 92.092 45.2153C98.21 46.5577 103.362 53.9414 103.362 63.0032C103.362 68.7088 102.396 73.4075 101.752 75.7568C102.396 76.7637 103.04 78.4418 103.04 80.4555C103.04 84.8186 100.786 87.8392 98.854 89.1817C98.21 94.5516 95.312 97.9078 93.38 99.5859V104.956C93.38 107.976 99.176 110.326 104.328 112.34C110.446 114.689 116.886 117.374 119.14 122.744L113.022 125.093C112.056 122.408 106.904 120.394 102.074 118.716C94.99 116.031 86.94 113.011 86.94 105.291V96.5653L88.55 95.5585C88.55 95.5585 92.414 92.8735 92.414 87.5035V85.1542L94.346 84.1473C94.668 84.1473 96.278 83.1405 96.278 80.4555C96.278 79.7843 95.634 78.7774 95.312 78.4418L94.024 77.0993L94.668 75.4212C94.668 75.4212 96.278 70.0512 96.278 63.3388C96.278 56.962 92.736 52.2633 89.838 52.2633H87.906L86.94 50.5852C86.94 49.2427 84.686 47.9002 80.822 47.9002C70.84 47.9002 64.722 53.6058 64.722 63.0032C64.722 67.3663 66.332 74.7499 66.332 74.7499L66.654 76.428L65.366 78.1062C65.044 78.1062 64.4 79.113 64.4 80.4555C64.4 82.1336 66.332 84.1473 67.298 84.8186L68.586 85.8254V87.5035C68.586 92.5379 72.772 95.2228 72.772 95.5585L74.382 96.5653V105.291C74.382 113.346 66.01 117.374 58.282 120.73C54.74 122.073 49.91 124.422 49.266 126.1Z" fill="black"/>
</svg>
