<svg width="161" height="168" viewBox="0 0 161 168" fill="none" xmlns="http://www.w3.org/2000/svg">
<path d="M80.822 140.977C50.554 140.977 26.082 115.569 26.082 84.1442C26.082 52.7189 50.554 27.3112 80.822 27.3112C111.09 27.3112 135.562 52.7189 135.562 84.1442C135.562 115.569 110.768 140.977 80.822 140.977ZM80.822 33.9974C54.096 33.9974 32.522 56.3963 32.522 84.1442C32.522 111.892 54.096 134.291 80.822 134.291C107.548 134.291 129.122 111.892 129.122 84.1442C129.122 56.3963 107.226 33.9974 80.822 33.9974Z" fill="black"/>
<path d="M49.2662 125.264L43.4702 122.59C45.0802 118.578 50.2322 116.238 55.7062 113.564C61.1802 110.889 67.9422 107.88 67.9422 104.203V99.1882C66.0102 97.5166 62.7902 93.8392 62.1462 88.4902C60.5362 86.8186 57.9602 83.8099 57.9602 79.7981C57.9602 77.4579 58.9262 75.4521 59.5702 74.1148C58.9262 71.4403 58.2822 66.4256 58.2822 62.4139C58.2822 49.3758 66.9762 40.6837 80.8222 40.6837C84.6862 40.6837 89.5162 41.6866 92.0922 44.6954C98.2102 46.0326 103.362 53.3875 103.362 62.4139C103.362 68.0972 102.396 72.7776 101.752 75.1177C102.396 76.1207 103.04 77.7922 103.04 79.7981C103.04 84.1442 100.786 87.153 98.8542 88.4902C98.2102 93.8392 95.3122 97.1823 93.3802 98.8539V104.203C93.3802 107.212 99.1762 109.552 104.328 111.558C110.446 113.898 116.886 116.572 119.14 121.921L113.022 124.262C112.056 121.587 106.904 119.581 102.074 117.91C94.9902 115.235 86.9402 112.226 86.9402 104.537V95.8451L88.5502 94.8421C88.5502 94.8421 92.4142 92.1676 92.4142 86.8186V84.4785L94.3462 83.4755C94.6682 83.4755 96.2782 82.4726 96.2782 79.7981C96.2782 79.1295 95.6342 78.1266 95.3122 77.7922L94.0242 76.455L94.6682 74.7834C94.6682 74.7834 96.2782 69.4345 96.2782 62.7482C96.2782 56.3963 92.7362 51.7159 89.8382 51.7159H87.9062L86.9402 50.0444C86.9402 48.7071 84.6862 47.3699 80.8222 47.3699C70.8402 47.3699 64.7222 53.0532 64.7222 62.4139C64.7222 66.76 66.3322 74.1148 66.3322 74.1148L66.6542 75.7864L65.3662 77.4579C65.0442 77.4579 64.4002 78.4609 64.4002 79.7981C64.4002 81.4697 66.3322 83.4755 67.2982 84.1442L68.5862 85.1471V86.8186C68.5862 91.8333 72.7722 94.5078 72.7722 94.8421L74.3822 95.8451V104.537C74.3822 112.561 66.0102 116.572 58.2822 119.916C54.7402 121.253 49.9102 123.593 49.2662 125.264Z" fill="black"/>
</svg>
