<svg width="161" height="168" viewBox="0 0 161 168" fill="none" xmlns="http://www.w3.org/2000/svg">
<path d="M80.822 141.098C50.554 141.098 26.082 115.566 26.082 83.9872C26.082 52.408 50.554 26.8759 80.822 26.8759C111.09 26.8759 135.562 52.408 135.562 83.9872C135.562 115.566 110.768 141.098 80.822 141.098ZM80.822 33.5948C54.096 33.5948 32.522 56.1034 32.522 83.9872C32.522 111.871 54.096 134.379 80.822 134.379C107.548 134.379 129.122 111.871 129.122 83.9872C129.122 56.1034 107.226 33.5948 80.822 33.5948Z" fill="black"/>
<path d="M49.2662 125.309L43.4702 122.621C45.0802 118.59 50.2322 116.238 55.7062 113.551C61.1802 110.863 67.9422 107.84 67.9422 104.144V99.1048C66.0102 97.4251 62.7902 93.7297 62.1462 88.3545C60.5362 86.6747 57.9602 83.6512 57.9602 79.6198C57.9602 77.2682 58.9262 75.2525 59.5702 73.9087C58.9262 71.2211 58.2822 66.1819 58.2822 62.1505C58.2822 49.0485 66.9762 40.3138 80.8222 40.3138C84.6862 40.3138 89.5162 41.3217 92.0922 44.3452C98.2102 45.689 103.362 53.0799 103.362 62.1505C103.362 67.8616 102.396 72.5649 101.752 74.9165C102.396 75.9244 103.04 77.6041 103.04 79.6198C103.04 83.9872 100.786 87.0107 98.8542 88.3545C98.2102 93.7297 95.3122 97.0891 93.3802 98.7689V104.144C93.3802 107.168 99.1762 109.519 104.328 111.535C110.446 113.887 116.886 116.574 119.14 121.949L113.022 124.301C112.056 121.613 106.904 119.598 102.074 117.918C94.9902 115.23 86.9402 112.207 86.9402 104.48V95.7454L88.5502 94.7375C88.5502 94.7375 92.4142 92.0499 92.4142 86.6747V84.3231L94.3462 83.3153C94.6682 83.3153 96.2782 82.3074 96.2782 79.6198C96.2782 78.9479 95.6342 77.9401 95.3122 77.6041L94.0242 76.2603L94.6682 74.5806C94.6682 74.5806 96.2782 69.2054 96.2782 62.4864C96.2782 56.1034 92.7362 51.4001 89.8382 51.4001H87.9062L86.9402 49.7204C86.9402 48.3766 84.6862 47.0328 80.8222 47.0328C70.8402 47.0328 64.7222 52.7439 64.7222 62.1505C64.7222 66.5178 66.3322 73.9087 66.3322 73.9087L66.6542 75.5884L65.3662 77.2682C65.0442 77.2682 64.4002 78.276 64.4002 79.6198C64.4002 81.2996 66.3322 83.3153 67.2982 83.9872L68.5862 84.995V86.6747C68.5862 91.714 72.7722 94.4016 72.7722 94.7375L74.3822 95.7454V104.48C74.3822 112.543 66.0102 116.574 58.2822 119.934C54.7402 121.277 49.9102 123.629 49.2662 125.309Z" fill="black"/>
</svg>
