<svg width="147" height="16" viewBox="0 0 147 16" fill="none" xmlns="http://www.w3.org/2000/svg">
<g clip-path="url(#clip0_24_223)">
<path d="M135.312 6.7279C135.312 6.4596 135.552 6.24008 135.844 6.24008H140.625V3.37718C140.625 3.16071 140.911 3.05095 141.077 3.20339L145.778 7.56634C145.987 7.75842 145.987 8.06636 145.778 8.25844L141.077 12.6214C140.911 12.7738 140.625 12.6671 140.625 12.4476V9.5847H135.844C135.552 9.5847 135.312 9.36518 135.312 9.09688V6.7279ZM134.25 6.7279V9.09688C134.25 9.90483 134.964 10.5603 135.844 10.5603H139.562V12.4476C139.562 13.53 140.99 14.0788 141.827 13.3104L146.532 8.95053C147.156 8.37734 147.156 7.45048 146.532 6.87729L141.827 2.51434C140.994 1.74907 139.562 2.29177 139.562 3.37718V5.26443H135.844C134.964 5.26443 134.25 5.92299 134.25 6.7279ZM130 3.52352V12.3043C130 13.1123 130.714 13.7678 131.594 13.7678H135.977C136.196 13.7678 136.375 13.6031 136.375 13.4019V13.158C136.375 12.9568 136.196 12.7921 135.977 12.7921H131.594C131.302 12.7921 131.062 12.5726 131.062 12.3043V3.52352C131.062 3.25522 131.302 3.0357 131.594 3.0357H135.977C136.196 3.0357 136.375 2.87106 136.375 2.66984V2.42592C136.375 2.2247 136.196 2.06006 135.977 2.06006H131.594C130.714 2.06006 130 2.71557 130 3.52352Z" fill="black"/>
</g>
<defs>
<clipPath id="clip0_24_223">
<rect width="147" height="15.6103" fill="white" transform="translate(0 0.108765)"/>
</clipPath>
</defs>
</svg>
