<svg width="147" height="17" viewBox="0 0 147 17" fill="none" xmlns="http://www.w3.org/2000/svg">
<g clip-path="url(#clip0_6_11207)">
<path d="M135.312 7.42009C135.312 7.15258 135.552 6.9337 135.844 6.9337H140.625V4.07919C140.625 3.86335 140.911 3.75391 141.077 3.90591L145.778 8.25608C145.987 8.4476 145.987 8.75463 145.778 8.94615L141.077 13.2963C140.911 13.4483 140.625 13.3419 140.625 13.123V10.2685H135.844C135.552 10.2685 135.312 10.0497 135.312 9.78213V7.42009ZM134.25 7.42009V9.78213C134.25 10.5877 134.964 11.2413 135.844 11.2413H139.562V13.123C139.562 14.2022 140.99 14.7494 141.827 13.9833L146.532 9.63622C147.156 9.06471 147.156 8.14056 146.532 7.56905L141.827 3.21888C140.994 2.45586 139.562 2.99697 139.562 4.07919V5.96092H135.844C134.964 5.96092 134.25 6.61755 134.25 7.42009ZM130 4.22511V12.9802C130 13.7857 130.714 14.4393 131.594 14.4393H135.977C136.196 14.4393 136.375 14.2752 136.375 14.0745V13.8313C136.375 13.6307 136.196 13.4666 135.977 13.4666H131.594C131.302 13.4666 131.062 13.2477 131.062 12.9802V4.22511C131.062 3.95759 131.302 3.73871 131.594 3.73871H135.977C136.196 3.73871 136.375 3.57456 136.375 3.37392V3.13072C136.375 2.93009 136.196 2.76593 135.977 2.76593H131.594C130.714 2.76593 130 3.41952 130 4.22511Z" fill="black"/>
</g>
<defs>
<clipPath id="clip0_6_11207">
<rect width="147" height="15.5645" fill="white" transform="translate(0 0.820374)"/>
</clipPath>
</defs>
</svg>
