<svg width="68" height="19" viewBox="0 0 68 19" fill="none" xmlns="http://www.w3.org/2000/svg">
<g clip-path="url(#clip0_6_10621)">
<path d="M52.2857 2.25H56L57.2 0.675C57.3597 0.465419 57.5667 0.295313 57.8048 0.178154C58.0428 0.0609948 58.3053 0 58.5714 0L61.4286 0C61.6947 0 61.9572 0.0609948 62.1952 0.178154C62.4333 0.295313 62.6403 0.465419 62.8 0.675L64 2.25H67.7143C67.7901 2.25 67.8627 2.27963 67.9163 2.33238C67.9699 2.38512 68 2.45666 68 2.53125V3.09375C68 3.16834 67.9699 3.23988 67.9163 3.29262C67.8627 3.34537 67.7901 3.375 67.7143 3.375H67.0393L65.8536 16.4637C65.8152 16.8833 65.6188 17.2737 65.3029 17.558C64.987 17.8423 64.5745 17.9999 64.1464 18H55.8536C55.4255 17.9999 55.013 17.8423 54.6971 17.558C54.3812 17.2737 54.1848 16.8833 54.1464 16.4637L52.9607 3.375H52.2857C52.2099 3.375 52.1373 3.34537 52.0837 3.29262C52.0301 3.23988 52 3.16834 52 3.09375V2.53125C52 2.45666 52.0301 2.38512 52.0837 2.33238C52.1373 2.27963 52.2099 2.25 52.2857 2.25ZM61.8857 1.35C61.8323 1.28034 61.7632 1.22379 61.6839 1.18475C61.6046 1.14572 61.5172 1.12527 61.4286 1.125H58.5714C58.4828 1.12527 58.3954 1.14572 58.3161 1.18475C58.2368 1.22379 58.1677 1.28034 58.1143 1.35L57.4286 2.25H62.5714L61.8857 1.35ZM55.2857 16.3617C55.2975 16.5019 55.3624 16.6325 55.4677 16.7277C55.5729 16.8228 55.7107 16.8754 55.8536 16.875H64.1464C64.2893 16.8754 64.4271 16.8228 64.5323 16.7277C64.6376 16.6325 64.7025 16.5019 64.7143 16.3617L65.8929 3.375H54.1071L55.2857 16.3617Z" fill="#FE0000"/>
</g>
<g clip-path="url(#clip1_6_10621)">
<path d="M18.3033 2.08777L16.9113 0.695801C16.4478 0.231934 15.8399 0 15.2321 0C14.6242 0 14.0164 0.231934 13.5525 0.69543L0.475916 13.772L0.00462689 18.0107C-0.0547481 18.5443 0.365701 19 0.88783 19C0.920858 19 0.953885 18.9981 0.987654 18.9944L5.22332 18.5265L18.3036 5.44617C19.231 4.51881 19.231 3.01514 18.3033 2.08777ZM4.67818 17.3924L1.2259 17.775L1.61035 14.3175L11.4031 4.52475L14.4747 7.59629L4.67818 17.3924ZM17.4639 4.60676L15.3141 6.7565L12.2426 3.68496L14.3923 1.53521C14.6164 1.31107 14.9148 1.1875 15.2321 1.1875C15.5494 1.1875 15.8474 1.31107 16.0719 1.53521L17.4639 2.92719C17.9266 3.39031 17.9266 4.14363 17.4639 4.60676Z" fill="#FE0000"/>
</g>
<defs>
<clipPath id="clip0_6_10621">
<rect width="16" height="18" fill="white" transform="matrix(-1 0 0 1 68 0)"/>
</clipPath>
<clipPath id="clip1_6_10621">
<rect width="19" height="19" fill="white"/>
</clipPath>
</defs>
</svg>
