<svg width="48" height="19" viewBox="0 0 48 19" fill="none" xmlns="http://www.w3.org/2000/svg">
<g clip-path="url(#clip0_24_354)">
<path d="M36.8 2.25H39.4L40.24 0.675C40.3518 0.465419 40.4968 0.295313 40.6634 0.178154C40.83 0.0609948 41.0138 0 41.2 0L43.2 0C43.3863 0 43.5701 0.0609948 43.7367 0.178154C43.9033 0.295313 44.0483 0.465419 44.16 0.675L45 2.25H47.6C47.6531 2.25 47.704 2.27963 47.7415 2.33238C47.779 2.38512 47.8 2.45666 47.8 2.53125V3.09375C47.8 3.16834 47.779 3.23988 47.7415 3.29262C47.704 3.34537 47.6531 3.375 47.6 3.375H47.1275L46.2975 16.4637C46.2707 16.8833 46.1332 17.2737 45.9121 17.558C45.6909 17.8423 45.4022 17.9999 45.1025 18H39.2975C38.9979 17.9999 38.7092 17.8423 38.488 17.558C38.2669 17.2737 38.1294 16.8833 38.1025 16.4637L37.2725 3.375H36.8C36.747 3.375 36.6961 3.34537 36.6586 3.29262C36.6211 3.23988 36.6 3.16834 36.6 3.09375V2.53125C36.6 2.45666 36.6211 2.38512 36.6586 2.33238C36.6961 2.27963 36.747 2.25 36.8 2.25ZM43.52 1.35C43.4827 1.28034 43.4343 1.22379 43.3788 1.18475C43.3233 1.14572 43.2621 1.12527 43.2 1.125H41.2C41.138 1.12527 41.0768 1.14572 41.0213 1.18475C40.9658 1.22379 40.9174 1.28034 40.88 1.35L40.4 2.25H44L43.52 1.35ZM38.9 16.3617C38.9083 16.5019 38.9538 16.6325 39.0274 16.7277C39.1011 16.8228 39.1975 16.8754 39.2975 16.875H45.1025C45.2026 16.8754 45.299 16.8228 45.3727 16.7277C45.4463 16.6325 45.4918 16.5019 45.5 16.3617L46.325 3.375H38.075L38.9 16.3617Z" fill="#FE0000"/>
</g>
<g clip-path="url(#clip1_24_354)">
<path d="M13.012 2.08777L12.0376 0.695801C11.7132 0.231934 11.2877 0 10.8622 0C10.4367 0 10.0112 0.231934 9.68648 0.69543L0.53286 13.772L0.202958 18.0107C0.161396 18.5443 0.45571 19 0.8212 19C0.844319 19 0.867439 18.9981 0.891077 18.9944L3.85604 18.5265L13.0123 5.44617C13.6614 4.51881 13.6614 3.01514 13.012 2.08777ZM3.47445 17.3924L1.05785 17.775L1.32696 14.3175L8.18192 4.52475L10.332 7.59629L3.47445 17.3924ZM12.4244 4.60676L10.9196 6.7565L8.76951 3.68496L10.2743 1.53521C10.4312 1.31107 10.6401 1.1875 10.8622 1.1875C11.0843 1.1875 11.2929 1.31107 11.45 1.53521L12.4244 2.92719C12.7483 3.39031 12.7483 4.14363 12.4244 4.60676Z" fill="#FE0000"/>
</g>
<defs>
<clipPath id="clip0_24_354">
<rect width="11.2" height="18" fill="white" transform="matrix(-1 0 0 1 47.8 0)"/>
</clipPath>
<clipPath id="clip1_24_354">
<rect width="13.3" height="19" fill="white" transform="translate(0.200012)"/>
</clipPath>
</defs>
</svg>
