<svg width="20" height="21" viewBox="0 0 20 21" fill="none" xmlns="http://www.w3.org/2000/svg">
<path fill-rule="evenodd" clip-rule="evenodd" d="M13 2.11888C12.6463 2.11888 12.3072 2.25935 12.0571 2.5094C11.8071 2.75945 11.6666 3.09859 11.6666 3.45221V7.11888H7.99996C7.64634 7.11888 7.3072 7.25935 7.05715 7.5094C6.8071 7.75945 6.66663 8.09859 6.66663 8.45221V12.9522H2.99996C2.64634 12.9522 2.3072 13.0927 2.05715 13.3427C1.8071 13.5928 1.66663 13.9319 1.66663 14.2855V17.4522C1.66663 17.8058 1.8071 18.145 2.05715 18.395C2.3072 18.6451 2.64634 18.7855 2.99996 18.7855H17C17.3536 18.7855 17.6927 18.6451 17.9428 18.395C18.1928 18.145 18.3333 17.8058 18.3333 17.4522V3.45221C18.3333 3.09859 18.1928 2.75945 17.9428 2.5094C17.6927 2.25935 17.3536 2.11888 17 2.11888H13ZM8.33329 8.78554H11.6666V17.1189H8.33329V8.78554ZM16.6666 17.1189H13.3333V3.78554H16.6666V17.1189ZM6.66663 14.6189V17.1189H3.33329V14.6189H6.66663Z" fill="black"/>
</svg>
