<svg width="20" height="21" viewBox="0 0 20 21" fill="none" xmlns="http://www.w3.org/2000/svg">
<path d="M6.66667 7.95221C6.20643 7.95221 5.83333 8.32531 5.83333 8.78554C5.83333 9.24578 6.20643 9.61888 6.66667 9.61888H13.3333C13.7936 9.61888 14.1667 9.24578 14.1667 8.78554C14.1667 8.32531 13.7936 7.95221 13.3333 7.95221H6.66667Z" fill="black"/>
<path d="M6.66667 11.2855C6.20643 11.2855 5.83333 11.6586 5.83333 12.1189C5.83333 12.5791 6.20643 12.9522 6.66667 12.9522H10C10.4602 12.9522 10.8333 12.5791 10.8333 12.1189C10.8333 11.6586 10.4602 11.2855 10 11.2855H6.66667Z" fill="black"/>
<path d="M6.66667 14.6189C6.20643 14.6189 5.83333 14.992 5.83333 15.4522C5.83333 15.9124 6.20643 16.2855 6.66667 16.2855H13.3333C13.7936 16.2855 14.1667 15.9124 14.1667 15.4522C14.1667 14.992 13.7936 14.6189 13.3333 14.6189H6.66667Z" fill="black"/>
<path fill-rule="evenodd" clip-rule="evenodd" d="M17.399 4.73353C17.3319 4.57122 17.2335 4.42376 17.1093 4.29962L14.4863 1.67665C14.2365 1.42653 13.8976 1.28585 13.5441 1.28554H3.83333C3.47971 1.28554 3.14057 1.42602 2.89052 1.67607C2.64048 1.92612 2.5 2.26525 2.5 2.61888V18.2855C2.5 18.4606 2.53449 18.634 2.60149 18.7958C2.6685 18.9576 2.76671 19.1045 2.89052 19.2284C3.01433 19.3522 3.16132 19.4504 3.32309 19.5174C3.48486 19.5844 3.65824 19.6189 3.83333 19.6189H16.1667C16.3418 19.6189 16.5151 19.5844 16.6769 19.5174C16.8387 19.4504 16.9857 19.3522 17.1095 19.2284C17.2333 19.1045 17.3315 18.9576 17.3985 18.7958C17.4655 18.634 17.5 18.4606 17.5 18.2855V5.24413L16.6667 5.24388L17.5 5.24592L17.5 5.24413C17.5002 5.06895 17.4659 4.89544 17.399 4.73353ZM12.5 5.03554C12.5 5.7259 13.0596 6.28554 13.75 6.28554H15.8333V17.9522H4.16667V2.95221H12.5V5.03554ZM15.0715 4.61888L14.1667 3.71405V4.61888H15.0715Z" fill="black"/>
</svg>
