<svg width="20" height="21" viewBox="0 0 20 21" fill="none" xmlns="http://www.w3.org/2000/svg">
<path fill-rule="evenodd" clip-rule="evenodd" d="M9.99996 2.68365C9.23857 2.68365 8.49174 2.89228 7.84058 3.28687L3.67392 5.81187C3.0612 6.18316 2.55456 6.70618 2.20295 7.3304C1.85133 7.95462 1.66661 8.65896 1.66663 9.37539V14.6187C1.66663 15.7238 2.10561 16.7836 2.88701 17.565C3.66842 18.3464 4.72822 18.7854 5.83329 18.7854H14.1666C15.2717 18.7854 16.3315 18.3464 17.1129 17.565C17.8943 16.7836 18.3333 15.7238 18.3333 14.6187V9.37456C18.3331 8.65829 18.1483 7.95397 17.7967 7.32995C17.4451 6.70592 16.9386 6.18308 16.326 5.81187L12.1593 3.28687C11.5082 2.89229 10.7613 2.68365 9.99996 2.68365ZM8.70434 4.71224C9.09504 4.47549 9.54313 4.35032 9.99996 4.35032C10.4568 4.35032 10.9049 4.47549 11.2956 4.71224L15.4622 7.23724C15.8298 7.45997 16.1337 7.77368 16.3447 8.1481C16.5556 8.52246 16.6665 8.94487 16.6666 9.37456V14.6187C16.6666 15.2818 16.4032 15.9177 15.9344 16.3865C15.4655 16.8553 14.8297 17.1187 14.1666 17.1187H13.3333V14.6187C13.3333 13.7347 12.9821 12.8868 12.357 12.2617C11.7319 11.6366 10.884 11.2854 9.99996 11.2854C9.1159 11.2854 8.26806 11.6366 7.64294 12.2617C7.01781 12.8868 6.66663 13.7347 6.66663 14.6187V17.1187H5.83329C5.17025 17.1187 4.53437 16.8553 4.06553 16.3865C3.59668 15.9177 3.33329 15.2818 3.33329 14.6187V9.37539C3.33328 8.94553 3.44412 8.5229 3.65509 8.14837C3.86605 7.77384 4.17003 7.46003 4.53767 7.23725L8.70434 4.71224ZM11.1785 13.4402C11.491 13.7528 11.6666 14.1767 11.6666 14.6187V17.1187H8.33329V14.6187C8.33329 14.1767 8.50889 13.7528 8.82145 13.4402C9.13401 13.1277 9.55793 12.9521 9.99996 12.9521C10.442 12.9521 10.8659 13.1277 11.1785 13.4402Z" fill="black"/>
</svg>
