<svg width="20" height="21" viewBox="0 0 20 21" fill="none" xmlns="http://www.w3.org/2000/svg">
<path fill-rule="evenodd" clip-rule="evenodd" d="M10 2.95221C8.89497 2.95221 7.83516 3.3912 7.05376 4.1726C6.27236 4.954 5.83337 6.01381 5.83337 7.11888C5.83337 8.22394 6.27236 9.28375 7.05376 10.0652C7.10873 10.1201 7.16507 10.1734 7.22272 10.2249C6.50895 10.552 5.85185 11.0056 5.286 11.5715C4.03575 12.8217 3.33337 14.5174 3.33337 16.2855V17.1189C3.33337 17.5791 3.70647 17.9522 4.16671 17.9522C4.62694 17.9522 5.00004 17.5791 5.00004 17.1189V16.2855C5.00004 14.9595 5.52682 13.6877 6.46451 12.75C7.40219 11.8123 8.67396 11.2855 10 11.2855C11.3261 11.2855 12.5979 11.8123 13.5356 12.75C14.4733 13.6877 15 14.9595 15 16.2855V17.1189C15 17.5791 15.3731 17.9522 15.8334 17.9522C16.2936 17.9522 16.6667 17.5791 16.6667 17.1189V16.2855C16.6667 14.5174 15.9643 12.8217 14.7141 11.5715C14.1482 11.0056 13.4911 10.552 12.7774 10.2249C12.835 10.1734 12.8914 10.1201 12.9463 10.0652C13.7277 9.28375 14.1667 8.22394 14.1667 7.11888C14.1667 6.01381 13.7277 4.954 12.9463 4.1726C12.1649 3.3912 11.1051 2.95221 10 2.95221ZM8.23227 5.35111C8.70111 4.88227 9.337 4.61888 10 4.61888C10.6631 4.61888 11.299 4.88227 11.7678 5.35111C12.2366 5.81995 12.5 6.45583 12.5 7.11888C12.5 7.78192 12.2366 8.4178 11.7678 8.88664C11.299 9.35548 10.6631 9.61888 10 9.61888C9.337 9.61888 8.70111 9.35548 8.23227 8.88664C7.76343 8.4178 7.50004 7.78192 7.50004 7.11888C7.50004 6.45583 7.76343 5.81995 8.23227 5.35111Z" fill="black"/>
</svg>
