<svg width="20" height="22" viewBox="0 0 20 22" fill="none" xmlns="http://www.w3.org/2000/svg">
<g clip-path="url(#clip0_24_235)">
<path d="M9.16667 10.9522C8.25 10.9522 7.46528 10.6095 6.8125 9.92408C6.15972 9.23867 5.83333 8.41471 5.83333 7.45221C5.83333 6.48971 6.15972 5.66575 6.8125 4.98033C7.46528 4.29492 8.25 3.95221 9.16667 3.95221C10.0833 3.95221 10.8681 4.29492 11.5208 4.98033C12.1736 5.66575 12.5 6.48971 12.5 7.45221C12.5 8.41471 12.1736 9.23867 11.5208 9.92408C10.8681 10.6095 10.0833 10.9522 9.16667 10.9522ZM18.4167 21.0147L15.75 18.2147C15.4583 18.3897 15.1458 18.5355 14.8125 18.6522C14.4792 18.7689 14.125 18.8272 13.75 18.8272C12.7083 18.8272 11.8231 18.4445 11.0942 17.6792C10.3653 16.9139 10.0006 15.984 10 14.8897C10 13.796 10.3647 12.8664 11.0942 12.1011C11.8236 11.3358 12.7089 10.9528 13.75 10.9522C14.7917 10.9522 15.6772 11.3352 16.4067 12.1011C17.1361 12.867 17.5006 13.7965 17.5 14.8897C17.5 15.2835 17.4444 15.6553 17.3333 16.0053C17.2222 16.3553 17.0833 16.6835 16.9167 16.9897L19.5833 19.7897L18.4167 21.0147ZM13.75 17.0772C14.3333 17.0772 14.8264 16.8658 15.2292 16.4428C15.6319 16.0199 15.8333 15.5022 15.8333 14.8897C15.8333 14.2772 15.6319 13.7595 15.2292 13.3366C14.8264 12.9137 14.3333 12.7022 13.75 12.7022C13.1667 12.7022 12.6736 12.9137 12.2708 13.3366C11.8681 13.7595 11.6667 14.2772 11.6667 14.8897C11.6667 15.5022 11.8681 16.0199 12.2708 16.4428C12.6736 16.8658 13.1667 17.0772 13.75 17.0772ZM9.1875 11.8272C8.60417 12.7314 8.3125 13.7522 8.3125 14.8897C8.3125 16.0272 8.60417 17.048 9.1875 17.9522H2.5V15.5241C2.5 15.0283 2.61806 14.5689 2.85417 14.146C3.09028 13.723 3.41667 13.4022 3.83333 13.1835C4.54167 12.8043 5.34028 12.4835 6.22917 12.221C7.11806 11.9585 8.10417 11.8272 9.1875 11.8272Z" fill="black"/>
</g>
<defs>
<clipPath id="clip0_24_235">
<rect width="20" height="21" fill="white" transform="translate(0 0.452209)"/>
</clipPath>
</defs>
</svg>
