<svg width="235" height="263" viewBox="0 0 235 263" fill="none" xmlns="http://www.w3.org/2000/svg">
<mask id="mask0_6_10411" style="mask-type:alpha" maskUnits="userSpaceOnUse" x="36" y="42" width="151" height="179">
<ellipse cx="111.662" cy="131.5" rx="75.1708" ry="88.5612" fill="#C4C4C4"/>
</mask>
<g mask="url(#mask0_6_10411)">
<rect x="14.5962" y="-30.4149" width="220.404" height="293.415" rx="39" fill="#F8D442"/>
</g>
<path d="M117.97 220.92C73.7901 220.92 38.0701 180.944 38.0701 131.5C38.0701 82.056 73.7901 42.08 117.97 42.08C162.15 42.08 197.87 82.056 197.87 131.5C197.87 180.944 161.68 220.92 117.97 220.92ZM117.97 52.6C78.9601 52.6 47.4701 87.842 47.4701 131.5C47.4701 175.158 78.9601 210.4 117.97 210.4C156.98 210.4 188.47 175.158 188.47 131.5C188.47 87.842 156.51 52.6 117.97 52.6Z" fill="black"/>
<path d="M71.91 196.198L63.45 191.99C65.8 185.678 73.3199 181.996 81.3099 177.788C89.2999 173.58 99.17 168.846 99.17 163.06V155.17C96.35 152.54 91.65 146.754 90.7099 138.338C88.3599 135.708 84.6 130.974 84.6 124.662C84.6 120.98 86.01 117.824 86.95 115.72C86.01 111.512 85.07 103.622 85.07 97.31C85.07 76.796 97.76 63.12 117.97 63.12C123.61 63.12 130.66 64.698 134.42 69.432C143.35 71.536 150.87 83.108 150.87 97.31C150.87 106.252 149.46 113.616 148.52 117.298C149.46 118.876 150.4 121.506 150.4 124.662C150.4 131.5 147.11 136.234 144.29 138.338C143.35 146.754 139.12 152.014 136.3 154.644V163.06C136.3 167.794 144.76 171.476 152.28 174.632C161.21 178.314 170.61 182.522 173.9 190.938L164.97 194.62C163.56 190.412 156.04 187.256 148.99 184.626C138.65 180.418 126.9 175.684 126.9 163.586V149.91L129.25 148.332C129.25 148.332 134.89 144.124 134.89 135.708V132.026L137.71 130.448C138.18 130.448 140.53 128.87 140.53 124.662C140.53 123.61 139.59 122.032 139.12 121.506L137.24 119.402L138.18 116.772C138.18 116.772 140.53 108.356 140.53 97.836C140.53 87.842 135.36 80.478 131.13 80.478H128.31L126.9 77.848C126.9 75.744 123.61 73.64 117.97 73.64C103.4 73.64 94.47 82.582 94.47 97.31C94.47 104.148 96.82 115.72 96.82 115.72L97.29 118.35L95.41 120.98C94.9399 120.98 94 122.558 94 124.662C94 127.292 96.82 130.448 98.2299 131.5L100.11 133.078V135.708C100.11 143.598 106.22 147.806 106.22 148.332L108.57 149.91V163.586C108.57 176.21 96.35 182.522 85.07 187.782C79.9 189.886 72.85 193.568 71.91 196.198Z" fill="black"/>
</svg>
