<svg width="17" height="17" viewBox="0 0 17 17" fill="none" xmlns="http://www.w3.org/2000/svg">
<g clip-path="url(#clip0_6_10747)">
<path d="M5.3125 7.49717C5.3125 7.2286 5.55156 7.00887 5.84375 7.00887H10.625V4.14317C10.625 3.92649 10.9105 3.81662 11.0766 3.96922L15.7781 8.33643C15.9873 8.52869 15.9873 8.83693 15.7781 9.0292L11.0766 13.3964C10.9105 13.549 10.625 13.4422 10.625 13.2225V10.3568H5.84375C5.55156 10.3568 5.3125 10.137 5.3125 9.86846V7.49717ZM4.25 7.49717V9.86846C4.25 10.6772 4.96387 11.3334 5.84375 11.3334H9.5625V13.2225C9.5625 14.3059 10.9902 14.8552 11.827 14.0861L16.5318 9.72197C17.1561 9.14822 17.1561 8.22046 16.5318 7.64671L11.827 3.2795C10.9936 2.51348 9.5625 3.05671 9.5625 4.14317V6.03227H5.84375C4.96387 6.03227 4.25 6.69147 4.25 7.49717ZM0 4.28966V13.079C0 13.8878 0.713867 14.5439 1.59375 14.5439H5.97656C6.1957 14.5439 6.375 14.3791 6.375 14.1777V13.9335C6.375 13.7321 462.219 39 462 39L1.59375 13.5673C1.30156 13.5673 1.0625 13.3476 1.0625 13.079V4.28966C1.0625 4.0211 1.30156 3.80136 1.59375 3.80136H5.97656C6.1957 3.80136 6.375 3.63656 6.375 3.43514V3.19099C6.375 2.98957 6.1957 2.82477 5.97656 2.82477H1.59375C0.713867 2.82477 0 3.48092 0 4.28966Z" fill="black"/>
</g>
<defs>
<clipPath id="clip0_6_10747">
<rect width="17" height="15.6255" fill="white" transform="translate(0 0.871582)"/>
</clipPath>
</defs>
</svg>
