<svg width="17" height="17" viewBox="0 0 17 17" fill="none" xmlns="http://www.w3.org/2000/svg">
<path d="M5.3125 7.42009C5.3125 7.15258 5.55156 6.9337 5.84375 6.9337H10.625V4.07919C10.625 3.86335 10.9105 3.75391 11.0766 3.90591L15.7781 8.25608C15.9873 8.4476 15.9873 8.75463 15.7781 8.94615L11.0766 13.2963C10.9105 13.4483 10.625 13.3419 10.625 13.123V10.2685H5.84375C5.55156 10.2685 5.3125 10.0497 5.3125 9.78213V7.42009ZM4.25 7.42009V9.78213C4.25 10.5877 4.96387 11.2413 5.84375 11.2413H9.5625V13.123C9.5625 14.2022 10.9902 14.7494 11.827 13.9833L16.5318 9.63622C17.1561 9.06471 17.1561 8.14056 16.5318 7.56905L11.827 3.21888C10.9936 2.45586 9.5625 2.99697 9.5625 4.07919V5.96092H5.84375C4.96387 5.96092 4.25 6.61755 4.25 7.42009ZM0 4.22511V12.9802C0 13.7857 0.713867 14.4393 1.59375 14.4393H5.97656C6.1957 14.4393 6.375 14.2752 6.375 14.0745V13.8313C6.375 13.6307 6.1957 13.4666 5.97656 13.4666H1.59375C1.30156 13.4666 1.0625 13.2477 1.0625 12.9802V4.22511C1.0625 3.95759 1.30156 3.73871 1.59375 3.73871H5.97656C6.1957 3.73871 6.375 3.57456 6.375 3.37392V3.13072C6.375 2.93009 6.1957 2.76593 5.97656 2.76593H1.59375C0.713867 2.76593 0 3.41952 0 4.22511Z" fill="black"/>
</svg>
