<svg width="17" height="17" viewBox="0 0 17 17" fill="none" xmlns="http://www.w3.org/2000/svg">
<path d="M5.3125 7.26643C5.3125 6.99761 5.55156 6.77766 5.84375 6.77766H10.625V3.90917C10.625 3.69227 10.9105 3.5823 11.0766 3.73504L15.7781 8.10651C15.9873 8.29897 15.9873 8.60751 15.7781 8.79996L11.0766 13.1714C10.9105 13.3242 10.625 13.2173 10.625 12.9973V10.1288H5.84375C5.55156 10.1288 5.3125 9.90887 5.3125 9.64004V7.26643ZM4.25 7.26643V9.64004C4.25 10.4496 4.96387 11.1064 5.84375 11.1064H9.5625V12.9973C9.5625 14.0818 10.9902 14.6316 11.827 13.8618L16.5318 9.49341C17.1561 8.9191 17.1561 7.99043 16.5318 7.41612L11.827 3.04465C10.9936 2.27788 9.5625 2.82165 9.5625 3.90917V5.80011H5.84375C4.96387 5.80011 4.25 6.45996 4.25 7.26643ZM0 4.0558V12.8537C0 13.6633 0.713867 14.3201 1.59375 14.3201H5.97656C6.1957 14.3201 6.375 14.1551 6.375 13.9535V13.7091C6.375 13.5075 6.1957 13.3425 5.97656 13.3425H1.59375C1.30156 13.3425 1.0625 13.1226 1.0625 12.8537V4.0558C1.0625 3.78697 1.30156 3.56703 1.59375 3.56703H5.97656C6.1957 3.56703 6.375 3.40206 6.375 3.20044V2.95606C6.375 2.75444 6.1957 2.58948 5.97656 2.58948H1.59375C0.713867 2.58948 0 3.24627 0 4.0558Z" fill="black"/>
</svg>
