<svg width="14" height="18" viewBox="0 0 14 18" fill="none" xmlns="http://www.w3.org/2000/svg">
<g clip-path="url(#clip0_6_10758)">
<path d="M0.235064 2.25H3.29091L4.27818 0.675C4.40955 0.465419 4.57991 0.295313 4.77575 0.178154C4.97159 0.0609948 5.18754 0 5.40649 0L7.75714 0C7.9761 0 8.19205 0.0609948 8.38789 0.178154C8.58373 0.295313 8.75408 0.465419 8.88545 0.675L9.87273 2.25H12.9286C12.9909 2.25 13.0507 2.27963 13.0948 2.33238C13.1389 2.38512 13.1636 2.45666 13.1636 2.53125V3.09375C13.1636 3.16834 13.1389 3.23988 13.0948 3.29262C13.0507 3.34537 12.9909 3.375 12.9286 3.375H12.3732L11.3977 16.4637C11.3662 16.8833 11.2045 17.2737 10.9446 17.558C10.6847 17.8423 10.3453 17.9999 9.9932 18H3.17044C2.81829 17.9999 2.47889 17.8423 2.21899 17.558C1.95908 17.2737 1.79747 16.8833 1.76592 16.4637L0.790404 3.375H0.235064C0.172721 3.375 0.11293 3.34537 0.0688477 3.29262C0.0247641 3.23988 -9.53674e-07 3.16834 -9.53674e-07 3.09375V2.53125C-9.53674e-07 2.45666 0.0247641 2.38512 0.0688477 2.33238C0.11293 2.27963 0.172721 2.25 0.235064 2.25ZM8.13325 1.35C8.0893 1.28034 8.03248 1.22379 7.96724 1.18475C7.90199 1.14572 7.83009 1.12527 7.75714 1.125H5.40649C5.33355 1.12527 5.26164 1.14572 5.1964 1.18475C5.13115 1.22379 5.07434 1.28034 5.03039 1.35L4.46623 2.25H8.6974L8.13325 1.35ZM2.70325 16.3617C2.71292 16.5019 2.76638 16.6325 2.85296 16.7277C2.93954 16.8228 3.05289 16.8754 3.17044 16.875H9.9932C10.1107 16.8754 10.2241 16.8228 10.3107 16.7277C10.3973 16.6325 10.4507 16.5019 10.4604 16.3617L11.43 3.375H1.7336L2.70325 16.3617Z" fill="#FE0000"/>
</g>
<defs>
<clipPath id="clip0_6_10758">
<rect width="13.1636" height="18" fill="white" transform="matrix(-1 0 0 1 13.1636 0)"/>
</clipPath>
</defs>
</svg>
